<svg width="16" height="16" viewBox="0 0 16 16" fill="none" xmlns="http://www.w3.org/2000/svg">
<g clip-path="url(#clip0_13_568)">
<path d="M7.99609 1.33301V14.6608" stroke="#4A5565" stroke-width="1.33278" stroke-linecap="round" stroke-linejoin="round"/>
<path d="M11.3283 3.33203H6.33041C5.71183 3.33203 5.11858 3.57776 4.68118 4.01516C4.24378 4.45257 3.99805 5.04581 3.99805 5.66439C3.99805 6.28297 4.24378 6.87622 4.68118 7.31362C5.11858 7.75102 5.71183 7.99675 6.33041 7.99675H9.66235C10.2809 7.99675 10.8742 8.24248 11.3116 8.67989C11.749 9.11729 11.9947 9.71054 11.9947 10.3291C11.9947 10.9477 11.749 11.5409 11.3116 11.9783C10.8742 12.4157 10.2809 12.6615 9.66235 12.6615H3.99805" stroke="#4A5565" stroke-width="1.33278" stroke-linecap="round" stroke-linejoin="round"/>
</g>
<defs>
<clipPath id="clip0_13_568">
<rect width="15.9933" height="15.9933" fill="white"/>
</clipPath>
</defs>
</svg>
