<svg width="20" height="20" viewBox="0 0 20 20" fill="none" xmlns="http://www.w3.org/2000/svg">
<path d="M9.99492 2.49902H4.16402C3.72218 2.49902 3.29843 2.67454 2.986 2.98698C2.67357 3.29941 2.49805 3.72315 2.49805 4.165V15.8268C2.49805 16.2686 2.67357 16.6924 2.986 17.0048C3.29843 17.3173 3.72218 17.4928 4.16402 17.4928H15.8258C16.2677 17.4928 16.6914 17.3173 17.0038 17.0048C17.3163 16.6924 17.4918 16.2686 17.4918 15.8268V9.9959" stroke="#4F39F6" stroke-width="1.66597" stroke-linecap="round" stroke-linejoin="round"/>
<path d="M15.3057 2.1865C15.6371 1.85511 16.0866 1.66895 16.5552 1.66895C17.0238 1.66895 17.4733 1.85511 17.8047 2.1865C18.1361 2.51788 18.3222 2.96733 18.3222 3.43598C18.3222 3.90462 18.1361 4.35407 17.8047 4.68546L10.297 12.194C10.0992 12.3916 9.85483 12.5363 9.58644 12.6147L7.19327 13.3144C7.12159 13.3353 7.04561 13.3365 6.97328 13.318C6.90096 13.2995 6.83494 13.2618 6.78214 13.209C6.72935 13.1562 6.69172 13.0902 6.67319 13.0179C6.65466 12.9456 6.65591 12.8696 6.67682 12.7979L7.37652 10.4047C7.45526 10.1366 7.60021 9.8925 7.79802 9.69504L15.3057 2.1865Z" stroke="#4F39F6" stroke-width="1.66597" stroke-linecap="round" stroke-linejoin="round"/>
</svg>
