<svg width="24" height="24" viewBox="0 0 24 24" fill="none" xmlns="http://www.w3.org/2000/svg">
<path d="M14.9936 20.9912V12.9946C14.9936 12.7295 14.8883 12.4752 14.7008 12.2878C14.5134 12.1003 14.2591 11.995 13.994 11.995H9.99568C9.73057 11.995 9.47632 12.1003 9.28887 12.2878C9.10141 12.4752 8.99609 12.7295 8.99609 12.9946V20.9912" stroke="#99A1AF" stroke-width="1.99917" stroke-linecap="round" stroke-linejoin="round"/>
<path d="M2.99805 9.99617C2.99798 9.70536 3.06135 9.41804 3.18376 9.15424C3.30616 8.89044 3.48464 8.65653 3.70675 8.46881L10.7038 2.47131C11.0647 2.16634 11.5219 1.99902 11.9943 1.99902C12.4667 1.99902 12.9239 2.16634 13.2848 2.47131L20.2818 8.46881C20.504 8.65653 20.6824 8.89044 20.8048 9.15424C20.9272 9.41804 20.9906 9.70536 20.9906 9.99617V18.9924C20.9906 19.5226 20.7799 20.0311 20.405 20.406C20.0301 20.781 19.5216 20.9916 18.9914 20.9916H4.99721C4.467 20.9916 3.95851 20.781 3.58359 20.406C3.20867 20.0311 2.99805 19.5226 2.99805 18.9924V9.99617Z" stroke="#99A1AF" stroke-width="1.99917" stroke-linecap="round" stroke-linejoin="round"/>
</svg>
