<svg width="16" height="16" viewBox="0 0 16 16" fill="none" xmlns="http://www.w3.org/2000/svg">
<g clip-path="url(#clip0_13_574)">
<path d="M7.33111 14.4805C7.53372 14.5974 7.76355 14.659 7.9975 14.659C8.23145 14.659 8.46128 14.5974 8.66389 14.4805L13.3286 11.8149C13.531 11.6981 13.6991 11.53 13.8161 11.3277C13.9331 11.1253 13.9948 10.8958 13.995 10.6621V5.33095C13.9948 5.09723 13.9331 4.86768 13.8161 4.66534C13.6991 4.46299 13.531 4.29496 13.3286 4.1781L8.66389 1.51254C8.46128 1.39557 8.23145 1.33398 7.9975 1.33398C7.76355 1.33398 7.53372 1.39557 7.33111 1.51254L2.66639 4.1781C2.46398 4.29496 2.29586 4.46299 2.1789 4.66534C2.06194 4.86768 2.00024 5.09723 2 5.33095V10.6621C2.00024 10.8958 2.06194 11.1253 2.1789 11.3277C2.29586 11.53 2.46398 11.6981 2.66639 11.8149L7.33111 14.4805Z" stroke="#4A5565" stroke-width="1.33278" stroke-linecap="round" stroke-linejoin="round"/>
<path d="M7.99609 14.661V7.99707" stroke="#4A5565" stroke-width="1.33278" stroke-linecap="round" stroke-linejoin="round"/>
<path d="M2.19336 4.66504L7.99761 7.99698L13.8019 4.66504" stroke="#4A5565" stroke-width="1.33278" stroke-linecap="round" stroke-linejoin="round"/>
<path d="M4.99805 2.84546L10.9955 6.27736" stroke="#4A5565" stroke-width="1.33278" stroke-linecap="round" stroke-linejoin="round"/>
</g>
<defs>
<clipPath id="clip0_13_574">
<rect width="15.9933" height="15.9933" fill="white"/>
</clipPath>
</defs>
</svg>
