<svg width="24" height="24" viewBox="0 0 24 24" fill="none" xmlns="http://www.w3.org/2000/svg">
<path d="M10.9919 21.7132C11.2957 21.8886 11.6403 21.981 11.9911 21.981C12.3419 21.981 12.6865 21.8886 12.9903 21.7132L19.985 17.7163C20.2885 17.5411 20.5405 17.2891 20.7159 16.9857C20.8913 16.6823 20.9838 16.3381 20.9842 15.9877V7.99382C20.9838 7.64336 20.8913 7.29916 20.7159 6.99575C20.5405 6.69234 20.2885 6.44038 19.985 6.26515L12.9903 2.26823C12.6865 2.09283 12.3419 2.00049 11.9911 2.00049C11.6403 2.00049 11.2957 2.09283 10.9919 2.26823L3.99728 6.26515C3.69377 6.44038 3.44169 6.69234 3.2663 6.99575C3.09092 7.29916 2.99841 7.64336 2.99805 7.99382V15.9877C2.99841 16.3381 3.09092 16.6823 3.2663 16.9857C3.44169 17.2891 3.69377 17.5411 3.99728 17.7163L10.9919 21.7132Z" stroke="#99A1AF" stroke-width="1.99846" stroke-linecap="round" stroke-linejoin="round"/>
<path d="M11.9902 21.983V11.9907" stroke="#99A1AF" stroke-width="1.99846" stroke-linecap="round" stroke-linejoin="round"/>
<path d="M3.28711 6.99463L11.9904 11.9908L20.6937 6.99463" stroke="#99A1AF" stroke-width="1.99846" stroke-linecap="round" stroke-linejoin="round"/>
<path d="M7.49414 4.26672L16.4872 9.41276" stroke="#99A1AF" stroke-width="1.99846" stroke-linecap="round" stroke-linejoin="round"/>
</svg>
