<svg width="56" height="56" viewBox="0 0 56 56" fill="none" xmlns="http://www.w3.org/2000/svg">
<path d="M43.1619 48.9947C47.6717 48.9947 51.3277 45.3387 51.3277 40.8289C51.3277 36.319 47.6717 32.6631 43.1619 32.6631C38.652 32.6631 34.9961 36.319 34.9961 40.8289C34.9961 45.3387 38.652 48.9947 43.1619 48.9947Z" stroke="#1E88C7" stroke-width="4.66617" stroke-linecap="round" stroke-linejoin="round"/>
<path d="M12.8318 48.9947C17.3416 48.9947 20.9976 45.3387 20.9976 40.8289C20.9976 36.319 17.3416 32.6631 12.8318 32.6631C8.32196 32.6631 4.66602 36.319 4.66602 40.8289C4.66602 45.3387 8.32196 48.9947 12.8318 48.9947Z" stroke="#1E88C7" stroke-width="4.66617" stroke-linecap="round" stroke-linejoin="round"/>
<path d="M34.9971 13.9984C36.2857 13.9984 37.3302 12.9539 37.3302 11.6654C37.3302 10.3768 36.2857 9.33228 34.9971 9.33228C33.7086 9.33228 32.6641 10.3768 32.6641 11.6654C32.6641 12.9539 33.7086 13.9984 34.9971 13.9984Z" stroke="#1E88C7" stroke-width="4.66617" stroke-linecap="round" stroke-linejoin="round"/>
<path d="M27.9973 40.8288V32.663L20.998 25.6638L30.3304 18.6646L34.9965 25.6638H39.6627" stroke="#1E88C7" stroke-width="4.66617" stroke-linecap="round" stroke-linejoin="round"/>
</svg>
